<svg width="33" height="33" viewBox="0 0 33 33" fill="none" xmlns="http://www.w3.org/2000/svg">
<path d="M1.01512 19.204H1.30112C1.54378 19.308 1.82978 19.386 2.15912 19.438C2.48845 19.49 2.83512 19.516 3.19912 19.516C4.15245 19.516 4.87178 19.2993 5.35712 18.866C5.85978 18.4153 6.11112 17.7133 6.11112 16.76V4.28H10.7391V16.968C10.7391 18.4587 10.4358 19.672 9.82912 20.608C9.23978 21.5267 8.42512 22.2113 7.38512 22.662C6.34512 23.0953 5.16645 23.312 3.84912 23.312C3.34645 23.312 2.83512 23.2773 2.31512 23.208C1.81245 23.156 1.37912 23.0867 1.01512 23V19.204Z" fill="white"/>
<path d="M16.462 23.312C15.0753 23.312 13.8967 23.052 12.926 22.532C11.9727 22.012 11.2447 21.2927 10.742 20.374C10.2393 19.4553 9.988 18.398 9.988 17.202C9.988 16.058 10.2827 15.0267 10.872 14.108C11.4613 13.1893 12.25 12.4613 13.238 11.924C14.226 11.3693 15.3267 11.092 16.54 11.092C18.1693 11.092 19.504 11.5687 20.544 12.522C21.6013 13.458 22.286 14.8187 22.598 16.604L13.758 19.412L12.952 17.436L19.348 15.278L18.594 15.616C18.4553 15.1653 18.204 14.7753 17.84 14.446C17.4933 14.0993 16.9647 13.926 16.254 13.926C15.7167 13.926 15.24 14.056 14.824 14.316C14.4253 14.5587 14.1133 14.914 13.888 15.382C13.68 15.8327 13.576 16.37 13.576 16.994C13.576 17.7047 13.706 18.3027 13.966 18.788C14.226 19.256 14.5813 19.6113 15.032 19.854C15.4827 20.0967 15.9853 20.218 16.54 20.218C16.9387 20.218 17.32 20.1487 17.684 20.01C18.0653 19.8713 18.438 19.6893 18.802 19.464L20.414 22.168C19.8073 22.5147 19.1487 22.792 18.438 23C17.7447 23.208 17.086 23.312 16.462 23.312ZM26.0751 23.234C25.1391 23.234 24.2638 23.0693 23.4491 22.74C22.6518 22.4107 21.9758 21.9513 21.4211 21.362L22.9291 19.36C23.4838 19.8627 23.9951 20.2267 24.4631 20.452C24.9484 20.66 25.3818 20.764 25.7631 20.764C26.0578 20.764 26.3178 20.738 26.5431 20.686C26.7858 20.6167 26.9764 20.5213 27.1151 20.4C27.2538 20.2613 27.3231 20.088 27.3231 19.88C27.3231 19.5853 27.2018 19.3513 26.9591 19.178C26.7338 19.0047 26.4391 18.866 26.0751 18.762C25.7111 18.6407 25.3211 18.5193 24.9051 18.398C23.8651 18.0687 23.1111 17.592 22.6431 16.968C22.1924 16.3267 21.9671 15.6333 21.9671 14.888C21.9671 14.316 22.1144 13.744 22.4091 13.172C22.7211 12.5827 23.2064 12.0973 23.8651 11.716C24.5411 11.3173 25.4078 11.118 26.4651 11.118C27.4184 11.118 28.2244 11.2133 28.8831 11.404C29.5418 11.5947 30.1658 11.9067 30.7551 12.34L29.3771 14.472C29.0478 14.212 28.6751 13.9953 28.2591 13.822C27.8604 13.6313 27.4878 13.5273 27.1411 13.51C26.8291 13.4927 26.5604 13.5273 26.3351 13.614C26.1271 13.7007 25.9624 13.8133 25.8411 13.952C25.7198 14.0907 25.6591 14.238 25.6591 14.394C25.6418 14.7233 25.7631 14.9833 26.0231 15.174C26.3004 15.3647 26.6471 15.512 27.0631 15.616C27.4791 15.72 27.8864 15.8413 28.2851 15.98C28.8398 16.1533 29.3164 16.3873 29.7151 16.682C30.1138 16.9767 30.4171 17.332 30.6251 17.748C30.8504 18.1467 30.9631 18.632 30.9631 19.204C30.9631 19.8973 30.7811 20.556 30.4171 21.18C30.0704 21.7867 29.5331 22.2807 28.8051 22.662C28.0944 23.0433 27.1844 23.234 26.0751 23.234Z" fill="white"/>
</svg>
